<svg width="239" height="24" viewBox="0 0 239 24" fill="none" xmlns="http://www.w3.org/2000/svg">
<path d="M225.817 20.3125H221.938V3.6875H225.817C230.863 3.6875 233.952 6.78819 233.952 11.967C233.952 17.1458 230.863 20.3125 225.817 20.3125ZM225.817 0.454861H217.785V23.5451H225.817C228.254 23.5451 230.417 23.0503 232.27 22.0608C235.977 20.0486 238.071 16.3872 238.071 11.967C238.071 9.78993 237.556 7.84375 236.526 6.0625C234.536 2.59896 230.691 0.454861 225.817 0.454861ZM208.655 23.5451H214.044V0.454861H209.856V18.6962L208.689 16.2882L199.764 0.454861H194.444V23.5451H198.597V5.30382L199.593 7.41493L208.655 23.5451ZM186.584 0.454861V23.5451H190.6V0.454861H186.584ZM4.7989 0.454861L0.679916 18.1684C-0.00658262 21.0712 2.29319 23.875 5.45108 23.875C7.20165 23.875 8.71194 22.9844 9.60439 21.5L19.8675 4.47917C20.0735 4.14931 20.3824 3.95139 20.863 4.01736C21.3778 4.08333 21.8241 4.61111 21.6868 5.1059L18.3229 17.9705C17.5334 20.9722 19.5929 23.875 22.8195 23.875C24.8103 23.875 26.7668 22.7535 27.5563 20.9722L36.6867 0.454861H32.0529L23.7806 19.4219C23.6433 19.7517 23.2314 20.0816 22.7508 20.0156C22.0643 19.9497 21.8241 19.3559 21.9614 18.8941L25.3252 6.0625C26.1147 3.02778 24.1582 0.125 20.8973 0.125C19.1467 0.125 17.5334 1.01562 16.641 2.5L6.34353 19.5538C6.1719 19.8177 5.82865 20.0486 5.45108 19.9826C4.86755 19.8837 4.62728 19.4878 4.73026 18.9931L9.05519 0.454861H4.7989ZM179.101 23.5451L183.22 5.8316C183.906 2.92882 181.607 0.125 178.449 0.125C176.698 0.125 175.222 1.01562 174.33 2.5L164.066 19.5208C163.861 19.8507 163.517 20.0486 163.071 19.9826C162.522 19.9167 162.11 19.3889 162.247 18.8941L165.577 6.02951C166.366 3.02778 164.307 0.125 161.08 0.125C159.089 0.125 157.167 1.24653 156.378 3.02778L147.213 23.5451H151.847L160.153 4.57812C160.291 4.24826 160.668 3.9184 161.183 3.98438C161.835 4.05035 162.076 4.6441 161.938 5.1059L158.609 17.9375C157.819 20.9722 159.742 23.875 163.002 23.875C163.871 23.8753 164.725 23.6561 165.478 23.2392C166.231 22.8224 166.857 22.2226 167.293 21.5L177.556 4.44618C177.728 4.18229 178.071 3.95139 178.483 4.01736C179.032 4.11632 179.307 4.51215 179.204 5.00694L174.845 23.5451H179.101ZM136.675 10.7465H131.698V3.88542H136.675C139.764 3.88542 141.481 5.1059 141.481 7.31597C141.481 9.49306 139.764 10.7465 136.675 10.7465ZM142.819 12.5278C144.639 11.4062 145.634 9.55903 145.634 7.31597C145.634 3.02778 142.304 0.454861 136.778 0.454861H127.682V23.5451H131.698V14.1771H137.533C139.902 14.1771 141.378 15.6285 141.378 17.7726V23.5451H145.428V16.849C145.428 15.0017 144.467 13.4184 142.819 12.5278ZM112.957 9.98785V3.88542H124.284V0.454861H108.941V23.5451H124.284V20.1146H112.957V13.4514H124.215V9.98785H112.957ZM93.8034 20.3125H89.9247V3.6875H93.8034C98.8492 3.6875 101.938 6.78819 101.938 11.967C101.938 17.1458 98.8492 20.3125 93.8034 20.3125ZM93.8034 0.454861H85.7714V23.5451H93.8034C96.2405 23.5451 98.4029 23.0503 100.222 22.0278C103.964 20.0486 106.057 16.3872 106.057 11.967C106.057 9.78993 105.543 7.84375 104.547 6.0625C102.522 2.59896 98.6775 0.454861 93.8034 0.454861ZM76.5723 23.5451H81.9613V0.454861H77.7737V18.6962L76.6066 16.2882L67.6821 0.454861H62.3618V23.5451H66.5151V5.30382L67.5105 7.41493L76.5723 23.5451ZM47.705 20.3455C46.2291 20.3455 44.8904 19.9826 43.7577 19.2569C41.4579 17.8385 40.1192 15.2326 40.1192 12C40.1192 10.3837 40.4282 8.93229 41.0803 7.64583C42.3503 5.13889 44.7531 3.65451 47.705 3.65451C49.181 3.65451 50.4854 4.01736 51.6524 4.71007C53.9522 6.12847 55.2565 8.76736 55.2565 12C55.2565 13.6163 54.9819 15.0347 54.3297 16.3212C53.0254 18.7951 50.657 20.3455 47.705 20.3455ZM47.705 23.875C49.9362 23.875 51.9613 23.3472 53.7462 22.3247C57.2817 20.2795 59.4098 16.5191 59.4098 12C59.4098 9.75694 58.895 7.67882 57.8995 5.89757C55.8744 2.23611 52.1673 0.125 47.705 0.125C45.4396 0.125 43.4144 0.652778 41.6982 1.67535C38.0941 3.72049 35.9659 7.4809 35.9659 12C35.9659 14.276 36.4808 16.3212 37.4762 18.1354C39.5014 21.6979 43.2085 23.875 47.705 23.875Z" fill="#111111"/>
</svg>
